<svg width="28" height="37" viewBox="0 0 28 37" fill="none" xmlns="http://www.w3.org/2000/svg">
<path d="M26.9281 29.3558L24.6952 18.5326C24.1013 15.6427 21.6831 13.5825 18.8943 13.5825H14.8845V9.16377C14.8845 8.43197 14.2764 7.83535 13.5305 7.83535C12.0767 7.83535 10.889 6.67473 10.889 5.24376C10.889 3.8128 12.072 2.65218 13.5305 2.65218C14.989 2.65218 16.172 3.8128 16.172 5.24376C16.172 5.97556 16.7801 6.57219 17.526 6.57219C18.2719 6.57219 18.88 5.97556 18.88 5.24376C18.88 2.35387 16.4808 0 13.5353 0C10.5897 0 8.1905 2.35387 8.1905 5.24376C8.1905 7.67221 9.89132 9.70446 12.186 10.2964V13.5825H8.17625C5.38271 13.5825 2.96925 15.6427 2.37539 18.5326L0.137712 29.3558C-0.669943 33.2804 2.14735 36.9953 5.93857 36.9953H21.1225C24.9137 36.9953 27.7357 33.2804 26.9233 29.3558H26.9281ZM23.4789 33.1919C23.1226 33.6207 22.3387 34.3432 21.1272 34.3432H5.94332C4.72709 34.3432 3.94794 33.6207 3.59162 33.1919C2.83623 32.2876 2.54642 31.0804 2.79347 29.8825L5.0264 19.0593C5.36371 17.4233 6.68921 16.2347 8.17625 16.2347H12.186V20.5975C12.186 21.3293 12.7941 21.9259 13.54 21.9259C14.2859 21.9259 14.894 21.3293 14.894 20.5975V16.2347H18.9038C20.3908 16.2347 21.7163 17.4233 22.0536 19.0593L24.2866 29.8825C24.5336 31.085 24.2438 32.2876 23.4884 33.1919H23.4789Z" fill="#FF317B"/>
</svg>
