<svg width="103" height="32" viewBox="0 0 103 32" fill="none" xmlns="http://www.w3.org/2000/svg">
<path d="M4.43293 24.3884C3.38298 23.9456 2.55157 23.3256 1.9387 22.5333C1.39235 21.8248 1.06929 21.0184 0.960016 20.1188C0.941012 19.9463 1.08354 19.7925 1.26407 19.7925H3.63478C3.78205 19.7925 3.90558 19.8997 3.92933 20.0442C4.06236 20.776 4.45668 21.382 5.10756 21.8667C5.83445 22.4027 6.78463 22.6731 7.96285 22.6731C9.05556 22.6731 9.92023 22.4354 10.5521 21.9599C11.184 21.4845 11.4975 20.8879 11.4975 20.1654C11.4975 19.4429 11.1602 18.8696 10.4856 18.5107C9.81096 18.1518 8.77051 17.7929 7.36424 17.4433C6.08149 17.1124 5.0363 16.7768 4.22389 16.4365C3.41149 16.0962 2.71785 15.5928 2.14299 14.9216C1.56338 14.2504 1.27358 13.3695 1.27358 12.2741C1.27358 11.4072 1.53488 10.6148 2.06223 9.89229C2.58958 9.16982 3.33547 8.5965 4.30465 8.17233C5.27384 7.74817 6.37605 7.53842 7.61604 7.53842C9.53065 7.53842 11.0747 8.01386 12.2529 8.96006C13.3504 9.84568 13.9727 11.0389 14.12 12.5351C14.139 12.7076 13.9918 12.8614 13.816 12.8614H11.545C11.393 12.8614 11.2695 12.7449 11.2505 12.5957C11.1412 11.8313 10.7849 11.2067 10.191 10.722C9.5259 10.1859 8.63748 9.91559 7.52577 9.91559C6.49482 9.91559 5.67291 10.1347 5.0648 10.5682C4.45668 11.0016 4.14787 11.5703 4.14787 12.2695C4.14787 12.8241 4.33316 13.2856 4.69898 13.6492C5.0648 14.0127 5.53039 14.2971 6.08624 14.5161C6.6421 14.7305 7.4165 14.9776 8.40469 15.2433C9.64467 15.5742 10.6566 15.9005 11.4358 16.2174C12.2149 16.5391 12.88 17.0191 13.4406 17.6577C13.9965 18.2963 14.2863 19.1353 14.3101 20.1654C14.3101 21.093 14.0488 21.932 13.5214 22.6731C12.9941 23.4142 12.2529 24.0015 11.298 24.421C10.3383 24.8452 9.24085 25.0549 8.00086 25.0549C6.67536 25.0549 5.48763 24.8312 4.43768 24.3884H4.43293Z" fill="white" fill-opacity="0.92"/>
<path d="M30.2256 8.32616C31.2755 8.87151 32.1022 9.69186 32.7008 10.7872C33.2994 11.8826 33.5987 13.211 33.5987 14.7818V24.4816C33.5987 24.6447 33.461 24.7799 33.2947 24.7799H31.0617C30.8955 24.7799 30.7577 24.6447 30.7577 24.4816V15.1827C30.7577 13.4907 30.3254 12.1949 29.4654 11.2953C28.6008 10.3957 27.4225 9.94823 25.9308 9.94823C24.439 9.94823 23.2132 10.4143 22.3201 11.3419C21.4269 12.2695 20.9803 13.6212 20.9803 15.3971V24.4816C20.9803 24.6447 20.8425 24.7799 20.6763 24.7799H18.4101C18.2438 24.7799 18.106 24.6447 18.106 24.4816V0.644625C18.106 0.481486 18.2438 0.346313 18.4101 0.346313H20.6763C20.8425 0.346313 20.9803 0.481486 20.9803 0.644625V10.2279C21.5457 9.36092 22.3296 8.68972 23.332 8.21429C24.3297 7.73886 25.4509 7.50114 26.6909 7.50114C27.9974 7.50114 29.1709 7.77614 30.2256 8.3215V8.32616Z" fill="white" fill-opacity="0.92"/>
<path d="M41.0292 23.9735C39.7132 23.2511 38.6822 22.2256 37.9363 20.8925C37.1904 19.5595 36.8151 18.0213 36.8151 16.264C36.8151 14.5068 37.2 12.9966 37.9649 11.6682C38.7297 10.3398 39.7797 9.31431 41.1052 8.60582C42.4307 7.89267 43.913 7.53842 45.552 7.53842C47.1911 7.53842 48.6734 7.89267 49.9989 8.60582C51.3244 9.31897 52.3696 10.3351 53.1392 11.6542C53.9089 12.9733 54.289 14.5115 54.289 16.2687C54.289 18.026 53.8946 19.5641 53.106 20.8972C52.3173 22.2303 51.2484 23.2557 49.9039 23.9782C48.5594 24.7007 47.0628 25.0596 45.4238 25.0596C43.7847 25.0596 42.3357 24.7007 41.0244 23.9782L41.0292 23.9735ZM48.3313 21.8667C49.234 21.3913 49.9656 20.6781 50.5262 19.7319C51.0821 18.7811 51.3624 17.6251 51.3624 16.264C51.3624 14.903 51.0868 13.747 50.5405 12.7962C49.9941 11.8453 49.2768 11.1415 48.3931 10.6754C47.5094 10.2092 46.5545 9.98085 45.5235 9.98085C44.4926 9.98085 43.5092 10.2139 42.635 10.6754C41.7608 11.1415 41.0624 11.8453 40.5351 12.7962C40.0077 13.747 39.7464 14.903 39.7464 16.264C39.7464 17.6251 40.003 18.8137 40.5208 19.7599C41.0339 20.7108 41.7228 21.4146 42.5875 21.8807C43.4521 22.3468 44.3976 22.5752 45.4285 22.5752C46.4595 22.5752 47.4287 22.3375 48.3313 21.8621V21.8667Z" fill="white" fill-opacity="0.92"/>
<path d="M63.2016 8.50795C64.3276 7.85539 65.6341 7.53377 67.1306 7.53377C68.6272 7.53377 70.0572 7.89734 71.3114 8.61515C72.5609 9.33763 73.5444 10.3538 74.2617 11.6635C74.9744 12.9733 75.3354 14.4975 75.3354 16.2314C75.3354 17.9654 74.9791 19.4709 74.2617 20.8133C73.5444 22.1557 72.5609 23.1952 71.3114 23.9409C70.0572 24.682 68.6652 25.0549 67.1306 25.0549C65.5961 25.0549 64.3608 24.7287 63.2349 24.0808C62.1089 23.4329 61.2538 22.6218 60.6646 21.6523V31.7064C60.6646 31.8695 60.5269 32.0047 60.3606 32.0047H58.0944C57.9281 32.0047 57.7903 31.8695 57.7903 31.7064V7.80878C57.7903 7.64564 57.9281 7.51047 58.0944 7.51047H60.3606C60.5269 7.51047 60.6646 7.64564 60.6646 7.80878V10.9411C61.23 9.97154 62.0804 9.16051 63.2064 8.51261L63.2016 8.50795ZM71.6107 12.8894C71.0834 11.9385 70.3755 11.2161 69.4823 10.722C68.5892 10.2279 67.6057 9.98086 66.532 9.98086C65.4583 9.98086 64.5081 10.2326 63.615 10.7406C62.7218 11.2487 62.0044 11.9805 61.4675 12.936C60.9307 13.8962 60.6646 15.0056 60.6646 16.2641C60.6646 17.5226 60.9307 18.6645 61.4675 19.6247C62.0044 20.5849 62.717 21.3167 63.615 21.8201C64.5081 22.3282 65.4821 22.5799 66.532 22.5799C67.582 22.5799 68.5892 22.3282 69.4823 21.8201C70.3755 21.3167 71.0881 20.5803 71.6107 19.6247C72.1381 18.6645 72.3994 17.5365 72.3994 16.2361C72.3994 14.9356 72.1381 13.8403 71.6107 12.8941V12.8894Z" fill="white" fill-opacity="0.92"/>
<path d="M79.3785 11.6682C80.0911 10.3584 81.0746 9.3423 82.3288 8.61982C83.5783 7.89735 84.9751 7.53844 86.5096 7.53844C88.0442 7.53844 89.3364 7.86006 90.4529 8.49863C91.5693 9.13721 92.396 9.94358 92.9471 10.9131V7.81345C92.9471 7.65031 93.0849 7.51514 93.2511 7.51514H95.5506C95.7169 7.51514 95.8546 7.65031 95.8546 7.81345V24.4816C95.8546 24.6448 95.7169 24.7799 95.5506 24.7799H93.2511C93.0849 24.7799 92.9471 24.6448 92.9471 24.4816V21.6197C92.377 22.6125 91.5313 23.4329 90.4054 24.0808C89.2794 24.7333 87.9729 25.0549 86.4764 25.0549C84.9798 25.0549 83.5545 24.6821 82.3098 23.9409C81.0698 23.1998 80.0911 22.1557 79.3738 20.8133C78.6564 19.4709 78.3 17.9467 78.3 16.2314C78.3 14.5161 78.6564 12.978 79.3738 11.6635L79.3785 11.6682ZM92.1584 12.922C91.6311 11.9712 90.9232 11.244 90.03 10.7406C89.1369 10.2326 88.1534 9.98087 87.0797 9.98087C86.006 9.98087 85.0273 10.2279 84.1437 10.722C83.26 11.2161 82.5569 11.9385 82.0295 12.8894C81.5022 13.8403 81.2409 14.9543 81.2409 16.2314C81.2409 17.5086 81.5022 18.6599 82.0295 19.6201C82.5569 20.5803 83.26 21.3121 84.1437 21.8155C85.0273 22.3235 86.006 22.5752 87.0797 22.5752C88.1534 22.5752 89.1369 22.3235 90.03 21.8155C90.9232 21.3121 91.6358 20.5756 92.1584 19.6201C92.6858 18.6599 92.9471 17.5412 92.9471 16.2594C92.9471 14.9776 92.6858 13.8636 92.1584 12.9174V12.922Z" fill="white" fill-opacity="0.92"/>
<path d="M103 0.644625V24.4816C103 24.6447 102.862 24.7799 102.696 24.7799H100.43C100.263 24.7799 100.126 24.6447 100.126 24.4816V0.644625C100.126 0.481486 100.263 0.346313 100.43 0.346313H102.696C102.862 0.346313 103 0.481486 103 0.644625Z" fill="white" fill-opacity="0.92"/>
</svg>
