<svg width="12" height="14" viewBox="0 0 12 14" fill="none" xmlns="http://www.w3.org/2000/svg">
<path d="M11.6802 9.14L10.4802 7.93333V4.96C10.4962 3.85588 10.1121 2.78327 9.39896 1.94023C8.6858 1.09718 7.6917 0.540624 6.60021 0.373334C5.96675 0.289912 5.32279 0.342544 4.71128 0.527718C4.09978 0.712891 3.53479 1.02635 3.05403 1.44717C2.57326 1.868 2.18778 2.38652 1.92328 2.96813C1.65879 3.54974 1.52138 4.18107 1.52021 4.82V7.93333L0.320211 9.14C0.169482 9.29324 0.0672672 9.48752 0.026345 9.69853C-0.0145772 9.90955 0.007609 10.1279 0.0901299 10.3264C0.172651 10.5249 0.311845 10.6947 0.490312 10.8145C0.668779 10.9343 0.8786 10.9988 1.09354 11H3.33354V11.2267C3.36468 11.9035 3.66285 12.5403 4.1627 12.9977C4.66254 13.455 5.32331 13.6956 6.00021 13.6667C6.67711 13.6956 7.33788 13.455 7.83773 12.9977C8.33758 12.5403 8.63574 11.9035 8.66688 11.2267V11H10.9069C11.1218 10.9988 11.3316 10.9343 11.5101 10.8145C11.6886 10.6947 11.8278 10.5249 11.9103 10.3264C11.9928 10.1279 12.015 9.90955 11.9741 9.69853C11.9332 9.48752 11.8309 9.29324 11.6802 9.14ZM7.33355 11.2267C7.29657 11.5473 7.13731 11.8414 6.88893 12.0475C6.64055 12.2537 6.3222 12.3561 6.00021 12.3333C5.67822 12.3561 5.35988 12.2537 5.1115 12.0475C4.86312 11.8414 4.70385 11.5473 4.66688 11.2267V11H7.33355V11.2267ZM1.67354 9.66667L2.46021 8.88C2.58499 8.75596 2.68399 8.60845 2.75149 8.44598C2.819 8.2835 2.85368 8.10927 2.85354 7.93333V4.82C2.85391 4.37027 2.95047 3.92582 3.13674 3.51647C3.32301 3.10713 3.59469 2.74237 3.93354 2.44667C4.26782 2.14379 4.66393 1.91717 5.09444 1.78249C5.52495 1.64781 5.97959 1.60829 6.42688 1.66667C7.19787 1.79185 7.89768 2.19134 8.39747 2.79159C8.89727 3.39183 9.1634 4.15242 9.14688 4.93333V7.93333C9.14586 8.10881 9.1795 8.28276 9.24585 8.44521C9.3122 8.60766 9.40997 8.75541 9.53354 8.88L10.3269 9.66667H1.67354Z" fill="#FF317B"/>
</svg>
