<svg width="19" height="20" viewBox="0 0 19 20" fill="none" xmlns="http://www.w3.org/2000/svg">
<g clip-path="url(#clip0_786_265)">
<g clip-path="url(#clip1_786_265)">
<path d="M15.6138 3.62769H14.1339V2.57582C14.1339 2.12469 13.7542 1.7577 13.2875 1.7577C12.8208 1.7577 12.4411 2.12469 12.4411 2.57582V3.62769H6.39559V2.57582C6.39559 2.12469 6.01593 1.7577 5.54922 1.7577C5.0825 1.7577 4.70284 2.12469 4.70284 2.57582V3.62769H3.28094C1.7478 3.62769 0.5 4.83383 0.5 6.3158V17.3119C0.5 18.7939 1.7478 20 3.28094 20H15.6138C17.1469 20 18.3947 18.7939 18.3947 17.3119V6.3158C18.3947 4.83383 17.1469 3.62769 15.6138 3.62769ZM16.702 17.3119C16.702 17.8916 16.2135 18.3638 15.6138 18.3638H3.28094C2.68122 18.3638 2.19275 17.8916 2.19275 17.3119V6.3158C2.19275 5.7361 2.68122 5.26393 3.28094 5.26393H4.70284V6.3158C4.70284 6.76693 5.0825 7.13392 5.54922 7.13392C6.01593 7.13392 6.39559 6.76693 6.39559 6.3158V5.26393H12.4411V6.3158C12.4411 6.76693 12.8208 7.13392 13.2875 7.13392C13.7542 7.13392 14.1339 6.76693 14.1339 6.3158V5.26393H15.6138C16.2135 5.26393 16.702 5.7361 16.702 6.3158V17.3119Z" fill="#808080"/>
<path d="M5.54901 13.3111C5.0823 13.3111 4.70264 13.6877 4.70264 14.1506V15.1099C4.70264 15.5728 5.0823 15.9494 5.54901 15.9494C6.01572 15.9494 6.39538 15.5728 6.39538 15.1099V14.1506C6.39538 13.6877 6.01572 13.3111 5.54901 13.3111Z" fill="#808080"/>
<path d="M9.41864 13.3111C8.95192 13.3111 8.57227 13.6877 8.57227 14.1506V15.1099C8.57227 15.5728 8.95192 15.9494 9.41864 15.9494C9.88535 15.9494 10.265 15.5728 10.265 15.1099V14.1506C10.265 13.6877 9.88535 13.3111 9.41864 13.3111Z" fill="#808080"/>
<path d="M13.2878 13.3111C12.8211 13.3111 12.4414 13.6877 12.4414 14.1506V15.1099C12.4414 15.5728 12.8211 15.9494 13.2878 15.9494C13.7545 15.9494 14.1342 15.5728 14.1342 15.1099V14.1506C14.1342 13.6877 13.7545 13.3111 13.2878 13.3111Z" fill="#808080"/>
<path d="M5.54901 9.47369C5.0823 9.47369 4.70264 9.85024 4.70264 10.3131V11.2725C4.70264 11.7354 5.0823 12.1119 5.54901 12.1119C6.01572 12.1119 6.39538 11.7354 6.39538 11.2725V10.3131C6.39538 9.85024 6.01572 9.47369 5.54901 9.47369Z" fill="#808080"/>
<path d="M9.41864 9.47369C8.95192 9.47369 8.57227 9.85024 8.57227 10.3131V11.2725C8.57227 11.7354 8.95192 12.1119 9.41864 12.1119C9.88535 12.1119 10.265 11.7354 10.265 11.2725V10.3131C10.265 9.85024 9.88535 9.47369 9.41864 9.47369Z" fill="#808080"/>
<path d="M13.2878 9.47369C12.8211 9.47369 12.4414 9.85024 12.4414 10.3131V11.2725C12.4414 11.7354 12.8211 12.1119 13.2878 12.1119C13.7545 12.1119 14.1342 11.7354 14.1342 11.2725V10.3131C14.1342 9.85024 13.7545 9.47369 13.2878 9.47369Z" fill="#808080"/>
</g>
</g>
<defs>
<clipPath id="clip0_786_265">
<rect width="18" height="20" fill="white" transform="translate(0.5)"/>
</clipPath>
<clipPath id="clip1_786_265">
<rect width="17.8947" height="18.9474" fill="white" transform="translate(0.5 1.05264)"/>
</clipPath>
</defs>
</svg>
