<svg width="19" height="19" viewBox="0 0 19 19" fill="none" xmlns="http://www.w3.org/2000/svg">
<g clip-path="url(#clip0_869_21)">
<path d="M15.6138 2.62769H14.1339V1.57582C14.1339 1.12469 13.7542 0.757703 13.2875 0.757703C12.8208 0.757703 12.4411 1.12469 12.4411 1.57582V2.62769H6.39559V1.57582C6.39559 1.12469 6.01593 0.757703 5.54922 0.757703C5.0825 0.757703 4.70284 1.12469 4.70284 1.57582V2.62769H3.28094C1.7478 2.62769 0.5 3.83383 0.5 5.3158V16.3119C0.5 17.7939 1.7478 19 3.28094 19H15.6138C17.1469 19 18.3947 17.7939 18.3947 16.3119V5.3158C18.3947 3.83383 17.1469 2.62769 15.6138 2.62769ZM16.702 16.3119C16.702 16.8916 16.2135 17.3638 15.6138 17.3638H3.28094C2.68122 17.3638 2.19275 16.8916 2.19275 16.3119V5.3158C2.19275 4.7361 2.68122 4.26393 3.28094 4.26393H4.70284V5.3158C4.70284 5.76693 5.0825 6.13392 5.54922 6.13392C6.01593 6.13392 6.39559 5.76693 6.39559 5.3158V4.26393H12.4411V5.3158C12.4411 5.76693 12.8208 6.13392 13.2875 6.13392C13.7542 6.13392 14.1339 5.76693 14.1339 5.3158V4.26393H15.6138C16.2135 4.26393 16.702 4.7361 16.702 5.3158V16.3119Z" fill="#757575"/>
<path d="M5.54901 12.3111C5.0823 12.3111 4.70264 12.6877 4.70264 13.1506V14.1099C4.70264 14.5728 5.0823 14.9494 5.54901 14.9494C6.01572 14.9494 6.39538 14.5728 6.39538 14.1099V13.1506C6.39538 12.6877 6.01572 12.3111 5.54901 12.3111Z" fill="#757575"/>
<path d="M9.41864 12.3111C8.95192 12.3111 8.57227 12.6877 8.57227 13.1506V14.1099C8.57227 14.5728 8.95192 14.9494 9.41864 14.9494C9.88535 14.9494 10.265 14.5728 10.265 14.1099V13.1506C10.265 12.6877 9.88535 12.3111 9.41864 12.3111Z" fill="#757575"/>
<path d="M13.2878 12.3111C12.8211 12.3111 12.4414 12.6877 12.4414 13.1506V14.1099C12.4414 14.5728 12.8211 14.9494 13.2878 14.9494C13.7545 14.9494 14.1342 14.5728 14.1342 14.1099V13.1506C14.1342 12.6877 13.7545 12.3111 13.2878 12.3111Z" fill="#757575"/>
<path d="M5.54901 8.47369C5.0823 8.47369 4.70264 8.85024 4.70264 9.31313V10.2725C4.70264 10.7354 5.0823 11.1119 5.54901 11.1119C6.01572 11.1119 6.39538 10.7354 6.39538 10.2725V9.31313C6.39538 8.85024 6.01572 8.47369 5.54901 8.47369Z" fill="#757575"/>
<path d="M9.41864 8.47369C8.95192 8.47369 8.57227 8.85024 8.57227 9.31313V10.2725C8.57227 10.7354 8.95192 11.1119 9.41864 11.1119C9.88535 11.1119 10.265 10.7354 10.265 10.2725V9.31313C10.265 8.85024 9.88535 8.47369 9.41864 8.47369Z" fill="#757575"/>
<path d="M13.2878 8.47369C12.8211 8.47369 12.4414 8.85024 12.4414 9.31313V10.2725C12.4414 10.7354 12.8211 11.1119 13.2878 11.1119C13.7545 11.1119 14.1342 10.7354 14.1342 10.2725V9.31313C14.1342 8.85024 13.7545 8.47369 13.2878 8.47369Z" fill="#757575"/>
</g>
<defs>
<clipPath id="clip0_869_21">
<rect width="17.8947" height="18.9474" fill="white" transform="translate(0.5 0.0526428)"/>
</clipPath>
</defs>
</svg>
