<svg width="12" height="14" viewBox="0 0 12 14" fill="none" xmlns="http://www.w3.org/2000/svg">
<path d="M4.60682 6.57288C4.49354 6.45961 4.3399 6.39597 4.17971 6.39597C4.01951 6.39597 3.86587 6.45961 3.7526 6.57288C3.63932 6.68616 3.57568 6.83979 3.57568 6.99999C3.57568 7.16019 3.63932 7.31382 3.7526 7.4271L5.55729 9.23179C5.6135 9.28754 5.68016 9.33165 5.75345 9.36159C5.82674 9.39152 5.90523 9.4067 5.98439 9.40624C6.06675 9.40363 6.14769 9.38413 6.22219 9.34894C6.2967 9.31376 6.36318 9.26365 6.41752 9.20171L10.6285 4.38921C10.7257 4.26849 10.7726 4.1149 10.7593 3.96047C10.7461 3.80603 10.6737 3.66266 10.5574 3.56026C10.441 3.45786 10.2896 3.40433 10.1347 3.41083C9.97987 3.41733 9.83349 3.48336 9.72611 3.59515L5.98439 7.9264L4.60682 6.57288Z" fill="#757575"/>
<path d="M11.3984 6.39844C11.2389 6.39844 11.0859 6.46182 10.9731 6.57463C10.8603 6.68744 10.7969 6.84045 10.7969 7C10.7969 8.27635 10.2898 9.50043 9.38733 10.4029C8.48481 11.3055 7.26073 11.8125 5.98438 11.8125C5.03396 11.8121 4.10495 11.5302 3.3145 11.0025C2.52405 10.4748 1.90754 9.72487 1.54273 8.84726C1.17792 7.96965 1.08113 7.00367 1.26457 6.07112C1.44801 5.13858 1.90347 4.28123 2.57352 3.60719C3.0191 3.15564 3.55026 2.79751 4.13593 2.55374C4.7216 2.30997 5.35 2.18546 5.98438 2.1875C6.36905 2.18991 6.7523 2.23429 7.12734 2.31984C7.20583 2.34412 7.28845 2.35206 7.37012 2.34318C7.45179 2.3343 7.53078 2.30879 7.60222 2.26822C7.67365 2.22764 7.73601 2.17287 7.78547 2.10726C7.83492 2.04166 7.87041 1.96663 7.88975 1.88679C7.9091 1.80694 7.91188 1.72399 7.89794 1.64303C7.88399 1.56207 7.85361 1.48482 7.80867 1.41605C7.76372 1.34728 7.70517 1.28845 7.63662 1.24317C7.56807 1.1979 7.49097 1.16715 7.41008 1.15281C6.94275 1.04287 6.46445 0.986365 5.98438 0.984375C4.79589 0.990549 3.63587 1.34863 2.6507 2.01344C1.66552 2.67824 0.899352 3.61998 0.44887 4.7198C-0.00161068 5.81961 -0.116214 7.02823 0.119524 8.19311C0.355262 9.358 0.930777 10.427 1.77344 11.2651C2.89035 12.3825 4.40446 13.0119 5.98438 13.0156C7.57982 13.0156 9.10992 12.3818 10.2381 11.2537C11.3662 10.1255 12 8.59544 12 7C12 6.84045 11.9366 6.68744 11.8238 6.57463C11.711 6.46182 11.558 6.39844 11.3984 6.39844Z" fill="#757575"/>
</svg>
