<svg width="27" height="32" viewBox="0 0 27 32" fill="none" xmlns="http://www.w3.org/2000/svg">
<path d="M18.5399 0.796685C18.3932 0.663381 18.2066 0.570068 18.0066 0.570068C17.8067 0.570068 17.6201 0.650051 17.4734 0.796685L14.0075 4.26259C13.8609 4.40922 13.7676 4.59585 13.7676 4.79581C13.7676 4.99576 13.8342 5.19572 13.9809 5.34235C14.1142 5.48899 14.3008 5.56897 14.5008 5.56897H14.5274C14.7274 5.56897 14.9007 5.48899 15.0473 5.35568L17.2601 3.14284V12.7541C17.2601 12.9673 17.3268 13.154 17.4734 13.3006C17.6067 13.4472 17.8067 13.5272 18.0066 13.5272C18.4199 13.5272 18.7665 13.194 18.7665 12.7807V3.14284L20.9527 5.32902C21.0993 5.48899 21.2859 5.56897 21.4859 5.56897C21.6992 5.56897 21.8858 5.48899 22.0191 5.35568C22.3124 5.06241 22.3257 4.59585 22.0458 4.28925L18.5399 0.796685Z" fill="#AD0054"/>
<path d="M32.5903 18.4595H35.1497C35.563 18.4595 35.9096 18.1262 35.9096 17.713C35.9096 17.6063 35.8829 17.4997 35.8429 17.4064L31.3372 7.50187C31.2572 7.31525 31.1106 7.18194 30.9107 7.10196C30.724 7.03531 30.5241 7.03531 30.3375 7.11529C30.1508 7.19527 30.0175 7.34191 29.9509 7.54186C29.8842 7.72849 29.8842 7.94178 29.9642 8.11507L33.9767 16.9531H2.03701L6.04946 8.11507C6.14277 7.92845 6.14277 7.71516 6.07612 7.52853C6.00947 7.34191 5.87616 7.18194 5.68954 7.10196C5.59622 7.06197 5.48958 7.03531 5.36961 7.03531C5.06301 7.03531 4.7964 7.2086 4.67643 7.48854L0.170749 17.393C0.0907667 17.5797 0.0774363 17.7796 0.157419 17.9662C0.224071 18.1529 0.370705 18.2995 0.544 18.3795C0.637313 18.4195 0.743956 18.4461 0.8506 18.4461H3.41004L0.157419 26.3377C-0.00254615 26.7243 0.184079 27.1642 0.570661 27.3242C0.663974 27.3642 0.757287 27.3775 0.86393 27.3775H17.247V30.6568C17.247 30.8701 17.3136 31.0567 17.4603 31.2033C17.5936 31.35 17.7935 31.4299 17.9935 31.4299C18.4201 31.4299 18.7533 31.0967 18.7533 30.6834V27.3775H35.1497C35.563 27.3775 35.9096 27.0442 35.9096 26.631C35.9096 26.5377 35.8829 26.431 35.8562 26.3377L32.6036 18.4728L32.5903 18.4595ZM1.98368 25.8712L5.04968 18.4595H17.247V21.6721C17.247 21.8854 17.3136 22.072 17.4603 22.2186C17.5936 22.3653 17.7935 22.4453 17.9935 22.4453C18.4067 22.4453 18.7533 22.112 18.7533 21.6988V18.4595H30.964L34.0166 25.8712H1.98368Z" fill="#AD0054"/>
</svg>
