<svg width="18" height="18" viewBox="0 0 18 18" fill="none" xmlns="http://www.w3.org/2000/svg">
<path d="M17.75 7.9036L10.7817 0.779649C9.76645 -0.258215 8.2356 -0.258215 7.22033 0.779649L0.249729 7.9036C-0.0773373 8.23601 -0.0841512 8.78603 0.231559 9.13039C0.54954 9.47475 1.06967 9.48192 1.39673 9.14952L1.81692 8.71907V16.1802C1.81692 17.1846 2.5937 18.0024 3.54765 18.0024H5.36468C6.31862 18.0024 7.09541 17.1846 7.09541 16.1802V14.2671C7.09541 13.6908 7.54058 13.2197 8.09023 13.2197H9.90727C10.4546 13.2197 10.9021 13.6884 10.9021 14.2671V16.1802C10.9021 17.1846 11.6789 18.0024 12.6328 18.0024H14.4499C15.4038 18.0024 16.1806 17.1846 16.1806 16.1802V8.71907L16.6008 9.14952C16.7598 9.31213 16.9664 9.39344 17.1731 9.39344C17.3798 9.39344 17.6024 9.30496 17.7637 9.13039C18.0794 8.78603 18.0726 8.2384 17.7455 7.9036H17.75ZM14.5362 16.1778C14.5362 16.228 14.4976 16.2687 14.4499 16.2687H12.6328C12.5851 16.2687 12.5465 16.228 12.5465 16.1778V14.2647C12.5465 12.7318 11.3632 11.4859 9.90727 11.4859H8.09023C6.63433 11.4859 5.45099 12.7318 5.45099 14.2647V16.1778C5.45099 16.228 5.41238 16.2687 5.36468 16.2687H3.54992C3.50222 16.2687 3.46361 16.228 3.46361 16.1778V7.03314L8.36733 2.02317C8.73528 1.64772 9.26676 1.64772 9.63471 2.02317L14.5362 7.03553V16.1802V16.1778Z" fill="#AD0054"/>
</svg>
