<svg width="22" height="22" viewBox="0 0 22 22" fill="none" xmlns="http://www.w3.org/2000/svg">
<path d="M17.4168 2.75H4.5835C3.85415 2.75 3.15468 3.03973 2.63895 3.55546C2.12323 4.07118 1.8335 4.77065 1.8335 5.5V19.25C1.83378 19.4124 1.87721 19.5719 1.95935 19.712C2.0415 19.8521 2.1594 19.9679 2.301 20.0475C2.438 20.1251 2.59269 20.1662 2.75016 20.1667C2.91469 20.1666 3.07617 20.1223 3.21766 20.0383L7.3335 17.545C7.48563 17.4544 7.66074 17.4099 7.83766 17.4167H17.4168C18.1462 17.4167 18.8456 17.1269 19.3614 16.6112C19.8771 16.0955 20.1668 15.396 20.1668 14.6667V5.5C20.1668 4.77065 19.8771 4.07118 19.3614 3.55546C18.8456 3.03973 18.1462 2.75 17.4168 2.75ZM18.3335 14.6667C18.3335 14.9098 18.2369 15.1429 18.065 15.3148C17.8931 15.4868 17.6599 15.5833 17.4168 15.5833H7.83766C7.337 15.5829 6.84573 15.7192 6.41683 15.9775L3.66683 17.6275V5.5C3.66683 5.25688 3.76341 5.02373 3.93532 4.85182C4.10722 4.67991 4.34038 4.58333 4.5835 4.58333H17.4168C17.6599 4.58333 17.8931 4.67991 18.065 4.85182C18.2369 5.02373 18.3335 5.25688 18.3335 5.5V14.6667Z" fill="#AD0054"/>
<path d="M6.95 9C6.42513 9 6 9.42513 6 9.95V10.9C6 11.4249 6.42513 11.85 6.95 11.85C7.47488 11.85 7.9 11.4249 7.9 10.9V9.95C7.9 9.42513 7.47488 9 6.95 9Z" fill="#AD0054"/>
<path d="M10.95 9C10.4251 9 10 9.42513 10 9.95V10.9C10 11.4249 10.4251 11.85 10.95 11.85C11.4749 11.85 11.9 11.4249 11.9 10.9V9.95C11.9 9.42513 11.4749 9 10.95 9Z" fill="#AD0054"/>
<path d="M14.95 9C14.4251 9 14 9.42513 14 9.95V10.9C14 11.4249 14.4251 11.85 14.95 11.85C15.4749 11.85 15.9 11.4249 15.9 10.9V9.95C15.9 9.42513 15.4749 9 14.95 9Z" fill="#AD0054"/>
</svg>
