<svg width="19" height="19" viewBox="0 0 19 19" fill="none" xmlns="http://www.w3.org/2000/svg">
<path d="M18.21 16.29L14.81 12.9C15.907 11.5025 16.5022 9.77666 16.5 8C16.5 6.41775 16.0308 4.87103 15.1518 3.55544C14.2727 2.23985 13.0233 1.21447 11.5615 0.608967C10.0997 0.00346625 8.49113 -0.15496 6.93928 0.153721C5.38743 0.462403 3.96197 1.22433 2.84315 2.34315C1.72433 3.46197 0.962403 4.88743 0.653721 6.43928C0.34504 7.99113 0.503466 9.59966 1.10897 11.0615C1.71447 12.5233 2.73985 13.7727 4.05544 14.6518C5.37103 15.5308 6.91775 16 8.5 16C10.2767 16.0022 12.0025 15.407 13.4 14.31L16.79 17.71C16.883 17.8037 16.9936 17.8781 17.1154 17.9289C17.2373 17.9797 17.368 18.0058 17.5 18.0058C17.632 18.0058 17.7627 17.9797 17.8846 17.9289C18.0064 17.8781 18.117 17.8037 18.21 17.71C18.3037 17.617 18.3781 17.5064 18.4289 17.3846C18.4797 17.2627 18.5058 17.132 18.5058 17C18.5058 16.868 18.4797 16.7373 18.4289 16.6154C18.3781 16.4936 18.3037 16.383 18.21 16.29V16.29ZM2.5 8C2.5 6.81332 2.8519 5.65328 3.51119 4.66658C4.17047 3.67989 5.10755 2.91085 6.2039 2.45673C7.30026 2.0026 8.50666 1.88378 9.67055 2.11529C10.8344 2.3468 11.9035 2.91825 12.7426 3.75736C13.5818 4.59648 14.1532 5.66558 14.3847 6.82946C14.6162 7.99335 14.4974 9.19975 14.0433 10.2961C13.5892 11.3925 12.8201 12.3295 11.8334 12.9888C10.8467 13.6481 9.68669 14 8.5 14C6.9087 14 5.38258 13.3679 4.25736 12.2426C3.13214 11.1174 2.5 9.5913 2.5 8Z" fill="#757575"/>
</svg>
