<svg width="96" height="30" viewBox="0 0 96 30" fill="none" xmlns="http://www.w3.org/2000/svg">
<g clip-path="url(#clip0_83_331)">
<path d="M15.5833 7.20832C15.5833 7.08676 15.535 6.97018 15.4491 6.88423C15.3631 6.79828 15.2466 6.74999 15.125 6.74999H12.8333C11.6794 6.6925 10.5495 7.0941 9.69074 7.86702C8.83194 8.63994 8.31397 9.72136 8.25 10.875V13.35H5.95833C5.83678 13.35 5.7202 13.3983 5.63424 13.4842C5.54829 13.5702 5.5 13.6868 5.5 13.8083V16.1917C5.5 16.3132 5.54829 16.4298 5.63424 16.5157C5.7202 16.6017 5.83678 16.65 5.95833 16.65H8.25V22.7917C8.25 22.9132 8.29829 23.0298 8.38424 23.1157C8.4702 23.2017 8.58678 23.25 8.70833 23.25H11.4583C11.5799 23.25 11.6965 23.2017 11.7824 23.1157C11.8684 23.0298 11.9167 22.9132 11.9167 22.7917V16.65H14.3183C14.4203 16.6515 14.5198 16.6189 14.6011 16.5575C14.6825 16.496 14.741 16.4093 14.7675 16.3108L15.4275 13.9275C15.4457 13.8598 15.4482 13.7888 15.4347 13.7199C15.4211 13.6511 15.392 13.5863 15.3495 13.5305C15.307 13.4748 15.2523 13.4295 15.1895 13.3982C15.1267 13.3669 15.0576 13.3504 14.9875 13.35H11.9167V10.875C11.9395 10.6481 12.046 10.4378 12.2155 10.2853C12.385 10.1327 12.6053 10.0488 12.8333 10.05H15.125C15.2466 10.05 15.3631 10.0017 15.4491 9.91575C15.535 9.82979 15.5833 9.71321 15.5833 9.59165V7.20832Z" fill="#0075E0"/>
</g>
<path d="M33 10.228V11.81H28.926V14.316H32.048V15.87H28.926V20H26.966V10.228H33ZM33.8858 16.094C33.8858 15.31 34.0398 14.6147 34.3478 14.008C34.6652 13.4013 35.0898 12.9347 35.6218 12.608C36.1632 12.2813 36.7652 12.118 37.4278 12.118C38.0065 12.118 38.5105 12.2347 38.9398 12.468C39.3785 12.7013 39.7285 12.9953 39.9898 13.35V12.244H41.9638V20H39.9898V18.866C39.7378 19.23 39.3878 19.5333 38.9398 19.776C38.5012 20.0093 37.9925 20.126 37.4138 20.126C36.7605 20.126 36.1632 19.958 35.6218 19.622C35.0898 19.286 34.6652 18.8147 34.3478 18.208C34.0398 17.592 33.8858 16.8873 33.8858 16.094ZM39.9898 16.122C39.9898 15.646 39.8965 15.24 39.7098 14.904C39.5232 14.5587 39.2712 14.2973 38.9538 14.12C38.6365 13.9333 38.2958 13.84 37.9318 13.84C37.5678 13.84 37.2318 13.9287 36.9238 14.106C36.6158 14.2833 36.3638 14.5447 36.1678 14.89C35.9812 15.226 35.8878 15.6273 35.8878 16.094C35.8878 16.5607 35.9812 16.9713 36.1678 17.326C36.3638 17.6713 36.6158 17.9373 36.9238 18.124C37.2412 18.3107 37.5772 18.404 37.9318 18.404C38.2958 18.404 38.6365 18.3153 38.9538 18.138C39.2712 17.9513 39.5232 17.69 39.7098 17.354C39.8965 17.0087 39.9898 16.598 39.9898 16.122ZM43.3741 16.122C43.3741 15.3193 43.5374 14.6193 43.8641 14.022C44.1908 13.4153 44.6434 12.9487 45.2221 12.622C45.8008 12.286 46.4634 12.118 47.2101 12.118C48.1714 12.118 48.9648 12.3607 49.5901 12.846C50.2248 13.322 50.6494 13.994 50.8641 14.862H48.7501C48.6381 14.526 48.4468 14.2647 48.1761 14.078C47.9148 13.882 47.5881 13.784 47.1961 13.784C46.6361 13.784 46.1928 13.9893 45.8661 14.4C45.5394 14.8013 45.3761 15.3753 45.3761 16.122C45.3761 16.8593 45.5394 17.4333 45.8661 17.844C46.1928 18.2453 46.6361 18.446 47.1961 18.446C47.9894 18.446 48.5074 18.0913 48.7501 17.382H50.8641C50.6494 18.222 50.2248 18.8893 49.5901 19.384C48.9554 19.8787 48.1621 20.126 47.2101 20.126C46.4634 20.126 45.8008 19.9627 45.2221 19.636C44.6434 19.3 44.1908 18.8333 43.8641 18.236C43.5374 17.6293 43.3741 16.9247 43.3741 16.122ZM59.51 15.954C59.51 16.234 59.4913 16.486 59.454 16.71H53.784C53.8307 17.27 54.0267 17.7087 54.372 18.026C54.7173 18.3433 55.142 18.502 55.646 18.502C56.374 18.502 56.892 18.1893 57.2 17.564H59.314C59.09 18.3107 58.6607 18.9267 58.026 19.412C57.3913 19.888 56.612 20.126 55.688 20.126C54.9413 20.126 54.2693 19.9627 53.672 19.636C53.084 19.3 52.622 18.8287 52.286 18.222C51.9593 17.6153 51.796 16.9153 51.796 16.122C51.796 15.3193 51.9593 14.6147 52.286 14.008C52.6127 13.4013 53.07 12.9347 53.658 12.608C54.246 12.2813 54.9227 12.118 55.688 12.118C56.4253 12.118 57.0833 12.2767 57.662 12.594C58.25 12.9113 58.7027 13.364 59.02 13.952C59.3467 14.5307 59.51 15.198 59.51 15.954ZM57.48 15.394C57.4707 14.89 57.2887 14.4887 56.934 14.19C56.5793 13.882 56.1453 13.728 55.632 13.728C55.1467 13.728 54.736 13.8773 54.4 14.176C54.0733 14.4653 53.8727 14.8713 53.798 15.394H57.48ZM62.9006 13.378C63.1526 13.0047 63.4979 12.7013 63.9366 12.468C64.3846 12.2347 64.8933 12.118 65.4626 12.118C66.1253 12.118 66.7226 12.2813 67.2546 12.608C67.7959 12.9347 68.2206 13.4013 68.5286 14.008C68.8459 14.6053 69.0046 15.3007 69.0046 16.094C69.0046 16.8873 68.8459 17.592 68.5286 18.208C68.2206 18.8147 67.7959 19.286 67.2546 19.622C66.7226 19.958 66.1253 20.126 65.4626 20.126C64.8839 20.126 64.3753 20.014 63.9366 19.79C63.5073 19.5567 63.1619 19.258 62.9006 18.894V20H60.9406V9.64H62.9006V13.378ZM67.0026 16.094C67.0026 15.6273 66.9046 15.226 66.7086 14.89C66.5219 14.5447 66.2699 14.2833 65.9526 14.106C65.6446 13.9287 65.3086 13.84 64.9446 13.84C64.5899 13.84 64.2539 13.9333 63.9366 14.12C63.6286 14.2973 63.3766 14.5587 63.1806 14.904C62.9939 15.2493 62.9006 15.6553 62.9006 16.122C62.9006 16.5887 62.9939 16.9947 63.1806 17.34C63.3766 17.6853 63.6286 17.9513 63.9366 18.138C64.2539 18.3153 64.5899 18.404 64.9446 18.404C65.3086 18.404 65.6446 18.3107 65.9526 18.124C66.2699 17.9373 66.5219 17.6713 66.7086 17.326C66.9046 16.9807 67.0026 16.57 67.0026 16.094ZM73.8729 20.126C73.1262 20.126 72.4542 19.9627 71.8569 19.636C71.2596 19.3 70.7882 18.8287 70.4429 18.222C70.1069 17.6153 69.9389 16.9153 69.9389 16.122C69.9389 15.3287 70.1116 14.6287 70.4569 14.022C70.8116 13.4153 71.2922 12.9487 71.8989 12.622C72.5056 12.286 73.1822 12.118 73.9289 12.118C74.6756 12.118 75.3522 12.286 75.9589 12.622C76.5656 12.9487 77.0416 13.4153 77.3869 14.022C77.7416 14.6287 77.9189 15.3287 77.9189 16.122C77.9189 16.9153 77.7369 17.6153 77.3729 18.222C77.0182 18.8287 76.5329 19.3 75.9169 19.636C75.3102 19.9627 74.6289 20.126 73.8729 20.126ZM73.8729 18.418C74.2276 18.418 74.5589 18.334 74.8669 18.166C75.1842 17.9887 75.4362 17.7273 75.6229 17.382C75.8096 17.0367 75.9029 16.6167 75.9029 16.122C75.9029 15.3847 75.7069 14.82 75.3149 14.428C74.9322 14.0267 74.4609 13.826 73.9009 13.826C73.3409 13.826 72.8696 14.0267 72.4869 14.428C72.1136 14.82 71.9269 15.3847 71.9269 16.122C71.9269 16.8593 72.1089 17.4287 72.4729 17.83C72.8462 18.222 73.3129 18.418 73.8729 18.418ZM82.8006 20.126C82.054 20.126 81.382 19.9627 80.7846 19.636C80.1873 19.3 79.716 18.8287 79.3706 18.222C79.0346 17.6153 78.8666 16.9153 78.8666 16.122C78.8666 15.3287 79.0393 14.6287 79.3846 14.022C79.7393 13.4153 80.22 12.9487 80.8266 12.622C81.4333 12.286 82.11 12.118 82.8566 12.118C83.6033 12.118 84.28 12.286 84.8866 12.622C85.4933 12.9487 85.9693 13.4153 86.3146 14.022C86.6693 14.6287 86.8466 15.3287 86.8466 16.122C86.8466 16.9153 86.6646 17.6153 86.3006 18.222C85.946 18.8287 85.4606 19.3 84.8446 19.636C84.238 19.9627 83.5566 20.126 82.8006 20.126ZM82.8006 18.418C83.1553 18.418 83.4866 18.334 83.7946 18.166C84.112 17.9887 84.364 17.7273 84.5506 17.382C84.7373 17.0367 84.8306 16.6167 84.8306 16.122C84.8306 15.3847 84.6346 14.82 84.2426 14.428C83.86 14.0267 83.3886 13.826 82.8286 13.826C82.2686 13.826 81.7973 14.0267 81.4146 14.428C81.0413 14.82 80.8546 15.3847 80.8546 16.122C80.8546 16.8593 81.0366 17.4287 81.4006 17.83C81.774 18.222 82.2406 18.418 82.8006 18.418ZM92.8764 20L90.2444 16.696V20H88.2844V9.64H90.2444V15.534L92.8484 12.244H95.3964L91.9804 16.136L95.4244 20H92.8764Z" fill="white" fill-opacity="0.92"/>
<defs>
<clipPath id="clip0_83_331">
<rect width="22" height="22" fill="white" transform="translate(0 4)"/>
</clipPath>
</defs>
</svg>
