<svg width="78" height="30" viewBox="0 0 78 30" fill="none" xmlns="http://www.w3.org/2000/svg">
<g clip-path="url(#clip0_83_211)">
<path d="M18.7982 15.2137C18.7982 14.5883 18.7427 13.9946 18.6477 13.4167H9.7019V16.9871H14.824C14.5944 18.1587 13.9215 19.1483 12.924 19.8212V22.1962H15.9798C17.769 20.5417 18.7982 18.1033 18.7982 15.2137Z" fill="#4285F4"/>
<path d="M9.7019 24.5C12.2669 24.5 14.4123 23.645 15.9798 22.1963L12.924 19.8213C12.069 20.3913 10.9844 20.7396 9.7019 20.7396C7.22398 20.7396 5.12606 19.0692 4.37398 16.8129H1.22314V19.2592C2.78273 22.3625 5.98898 24.5 9.7019 24.5Z" fill="#34A853"/>
<path d="M4.37399 16.8129C4.17607 16.2429 4.07315 15.6333 4.07315 15C4.07315 14.3667 4.18399 13.7571 4.37399 13.1871V10.7408H1.22315C0.573987 12.0233 0.201904 13.4642 0.201904 15C0.201904 16.5358 0.573987 17.9767 1.22315 19.2592L4.37399 16.8129Z" fill="#FBBC05"/>
<path d="M9.7019 9.26042C11.1031 9.26042 12.354 9.74334 13.3436 10.6854L16.0511 7.97792C14.4123 6.44208 12.2669 5.5 9.7019 5.5C5.98898 5.5 2.78273 7.6375 1.22314 10.7408L4.37398 13.1871C5.12606 10.9308 7.22398 9.26042 9.7019 9.26042Z" fill="#EA4335"/>
</g>
<path d="M34.77 13.168C34.546 12.7573 34.238 12.4447 33.846 12.23C33.454 12.0153 32.9967 11.908 32.474 11.908C31.8953 11.908 31.382 12.0387 30.934 12.3C30.486 12.5613 30.136 12.9347 29.884 13.42C29.632 13.9053 29.506 14.4653 29.506 15.1C29.506 15.7533 29.632 16.3227 29.884 16.808C30.1453 17.2933 30.5047 17.6667 30.962 17.928C31.4193 18.1893 31.9513 18.32 32.558 18.32C33.3047 18.32 33.916 18.124 34.392 17.732C34.868 17.3307 35.1807 16.7753 35.33 16.066H31.97V14.568H37.262V16.276C37.1313 16.9573 36.8513 17.5873 36.422 18.166C35.9927 18.7447 35.4373 19.2113 34.756 19.566C34.084 19.9113 33.328 20.084 32.488 20.084C31.5453 20.084 30.6913 19.874 29.926 19.454C29.17 19.0247 28.5727 18.432 28.134 17.676C27.7047 16.92 27.49 16.0613 27.49 15.1C27.49 14.1387 27.7047 13.28 28.134 12.524C28.5727 11.7587 29.17 11.166 29.926 10.746C30.6913 10.3167 31.5407 10.102 32.474 10.102C33.5753 10.102 34.532 10.3727 35.344 10.914C36.156 11.446 36.716 12.1973 37.024 13.168H34.77ZM42.1561 20.126C41.4094 20.126 40.7374 19.9627 40.1401 19.636C39.5428 19.3 39.0714 18.8287 38.7261 18.222C38.3901 17.6153 38.2221 16.9153 38.2221 16.122C38.2221 15.3287 38.3948 14.6287 38.7401 14.022C39.0948 13.4153 39.5754 12.9487 40.1821 12.622C40.7888 12.286 41.4654 12.118 42.2121 12.118C42.9588 12.118 43.6354 12.286 44.2421 12.622C44.8488 12.9487 45.3248 13.4153 45.6701 14.022C46.0248 14.6287 46.2021 15.3287 46.2021 16.122C46.2021 16.9153 46.0201 17.6153 45.6561 18.222C45.3014 18.8287 44.8161 19.3 44.2001 19.636C43.5934 19.9627 42.9121 20.126 42.1561 20.126ZM42.1561 18.418C42.5108 18.418 42.8421 18.334 43.1501 18.166C43.4674 17.9887 43.7194 17.7273 43.9061 17.382C44.0928 17.0367 44.1861 16.6167 44.1861 16.122C44.1861 15.3847 43.9901 14.82 43.5981 14.428C43.2154 14.0267 42.7441 13.826 42.1841 13.826C41.6241 13.826 41.1528 14.0267 40.7701 14.428C40.3968 14.82 40.2101 15.3847 40.2101 16.122C40.2101 16.8593 40.3921 17.4287 40.7561 17.83C41.1294 18.222 41.5961 18.418 42.1561 18.418ZM51.0838 20.126C50.3372 20.126 49.6652 19.9627 49.0678 19.636C48.4705 19.3 47.9992 18.8287 47.6538 18.222C47.3178 17.6153 47.1498 16.9153 47.1498 16.122C47.1498 15.3287 47.3225 14.6287 47.6678 14.022C48.0225 13.4153 48.5032 12.9487 49.1098 12.622C49.7165 12.286 50.3932 12.118 51.1398 12.118C51.8865 12.118 52.5632 12.286 53.1698 12.622C53.7765 12.9487 54.2525 13.4153 54.5978 14.022C54.9525 14.6287 55.1298 15.3287 55.1298 16.122C55.1298 16.9153 54.9478 17.6153 54.5838 18.222C54.2292 18.8287 53.7438 19.3 53.1278 19.636C52.5212 19.9627 51.8398 20.126 51.0838 20.126ZM51.0838 18.418C51.4385 18.418 51.7698 18.334 52.0778 18.166C52.3952 17.9887 52.6472 17.7273 52.8338 17.382C53.0205 17.0367 53.1138 16.6167 53.1138 16.122C53.1138 15.3847 52.9178 14.82 52.5258 14.428C52.1432 14.0267 51.6718 13.826 51.1118 13.826C50.5518 13.826 50.0805 14.0267 49.6978 14.428C49.3245 14.82 49.1378 15.3847 49.1378 16.122C49.1378 16.8593 49.3198 17.4287 49.6838 17.83C50.0572 18.222 50.5238 18.418 51.0838 18.418ZM59.6056 12.118C60.1842 12.118 60.6929 12.2347 61.1316 12.468C61.5702 12.692 61.9156 12.986 62.1676 13.35V12.244H64.1416V20.056C64.1416 20.7747 63.9969 21.414 63.7076 21.974C63.4182 22.5433 62.9842 22.9913 62.4056 23.318C61.8269 23.654 61.1269 23.822 60.3056 23.822C59.2042 23.822 58.2989 23.5653 57.5896 23.052C56.8896 22.5387 56.4929 21.8387 56.3996 20.952H58.3456C58.4482 21.3067 58.6676 21.5867 59.0036 21.792C59.3489 22.0067 59.7642 22.114 60.2496 22.114C60.8189 22.114 61.2809 21.9413 61.6356 21.596C61.9902 21.26 62.1676 20.7467 62.1676 20.056V18.852C61.9156 19.216 61.5656 19.5193 61.1176 19.762C60.6789 20.0047 60.1749 20.126 59.6056 20.126C58.9522 20.126 58.3549 19.958 57.8136 19.622C57.2722 19.286 56.8429 18.8147 56.5256 18.208C56.2176 17.592 56.0636 16.8873 56.0636 16.094C56.0636 15.31 56.2176 14.6147 56.5256 14.008C56.8429 13.4013 57.2676 12.9347 57.7996 12.608C58.3409 12.2813 58.9429 12.118 59.6056 12.118ZM62.1676 16.122C62.1676 15.646 62.0742 15.24 61.8876 14.904C61.7009 14.5587 61.4489 14.2973 61.1316 14.12C60.8142 13.9333 60.4736 13.84 60.1096 13.84C59.7456 13.84 59.4096 13.9287 59.1016 14.106C58.7936 14.2833 58.5416 14.5447 58.3456 14.89C58.1589 15.226 58.0656 15.6273 58.0656 16.094C58.0656 16.5607 58.1589 16.9713 58.3456 17.326C58.5416 17.6713 58.7936 17.9373 59.1016 18.124C59.4189 18.3107 59.7549 18.404 60.1096 18.404C60.4736 18.404 60.8142 18.3153 61.1316 18.138C61.4489 17.9513 61.7009 17.69 61.8876 17.354C62.0742 17.0087 62.1676 16.598 62.1676 16.122ZM68.0158 9.64V20H66.0558V9.64H68.0158ZM77.1623 15.954C77.1623 16.234 77.1437 16.486 77.1063 16.71H71.4363C71.483 17.27 71.679 17.7087 72.0243 18.026C72.3697 18.3433 72.7943 18.502 73.2983 18.502C74.0263 18.502 74.5443 18.1893 74.8523 17.564H76.9663C76.7423 18.3107 76.313 18.9267 75.6783 19.412C75.0437 19.888 74.2643 20.126 73.3403 20.126C72.5937 20.126 71.9217 19.9627 71.3243 19.636C70.7363 19.3 70.2743 18.8287 69.9383 18.222C69.6117 17.6153 69.4483 16.9153 69.4483 16.122C69.4483 15.3193 69.6117 14.6147 69.9383 14.008C70.265 13.4013 70.7223 12.9347 71.3103 12.608C71.8983 12.2813 72.575 12.118 73.3403 12.118C74.0777 12.118 74.7357 12.2767 75.3143 12.594C75.9023 12.9113 76.355 13.364 76.6723 13.952C76.999 14.5307 77.1623 15.198 77.1623 15.954ZM75.1323 15.394C75.123 14.89 74.941 14.4887 74.5863 14.19C74.2317 13.882 73.7977 13.728 73.2843 13.728C72.799 13.728 72.3883 13.8773 72.0523 14.176C71.7257 14.4653 71.525 14.8713 71.4503 15.394H75.1323Z" fill="#161616"/>
<defs>
<clipPath id="clip0_83_211">
<rect width="19" height="19" fill="white" transform="translate(0 5.5)"/>
</clipPath>
</defs>
</svg>
