<svg width="14" height="14" viewBox="0 0 14 14" fill="none" xmlns="http://www.w3.org/2000/svg">
<path d="M10.7065 13C10.5999 13.0004 10.4947 12.9753 10.3998 12.9267L6.99984 11.1467L3.59984 12.9267C3.48944 12.9847 3.36496 13.0106 3.24056 13.0015C3.11616 12.9923 2.99683 12.9484 2.89613 12.8748C2.79543 12.8012 2.7174 12.7008 2.67092 12.585C2.62443 12.4693 2.61136 12.3428 2.63318 12.22L3.29984 8.46667L0.553175 5.8C0.46748 5.71449 0.406689 5.60725 0.377327 5.4898C0.347964 5.37235 0.351138 5.24912 0.386508 5.13334C0.425148 5.01485 0.496226 4.90957 0.591675 4.82944C0.687124 4.74931 0.803124 4.69754 0.926509 4.68L4.72651 4.12667L6.39984 0.70667C6.45443 0.593956 6.53967 0.498898 6.64578 0.432386C6.7519 0.365874 6.8746 0.330597 6.99984 0.330597C7.12508 0.330597 7.24779 0.365874 7.3539 0.432386C7.46002 0.498898 7.54525 0.593956 7.59984 0.70667L9.29317 4.12L13.0932 4.67334C13.2166 4.69087 13.3326 4.74265 13.428 4.82278C13.5235 4.90291 13.5945 5.00819 13.6332 5.12667C13.6685 5.24245 13.6717 5.36568 13.6424 5.48313C13.613 5.60058 13.5522 5.70782 13.4665 5.79334L10.7198 8.46L11.3865 12.2133C11.4103 12.3383 11.3978 12.4675 11.3506 12.5856C11.3033 12.7038 11.2233 12.8059 11.1198 12.88C10.9991 12.9646 10.8538 13.0068 10.7065 13ZM6.99984 9.73334C7.10671 9.73064 7.21242 9.75592 7.30651 9.80667L9.81984 11.14L9.33984 8.33334C9.32122 8.22617 9.3291 8.11607 9.3628 8.01265C9.3965 7.90923 9.45499 7.81563 9.53318 7.74L11.5332 5.78667L8.73318 5.37334C8.6305 5.35267 8.53414 5.30809 8.4519 5.24323C8.36966 5.17837 8.30387 5.09504 8.25984 5L6.99984 2.5L5.73984 5C5.69161 5.09581 5.62097 5.17856 5.53392 5.24123C5.44688 5.3039 5.346 5.34465 5.23984 5.36L2.43984 5.77334L4.43984 7.72667C4.51803 7.80229 4.57652 7.8959 4.61022 7.99932C4.64392 8.10274 4.6518 8.21284 4.63317 8.32L4.15318 11.0933L6.66651 9.76C6.77301 9.72041 6.88841 9.71118 6.99984 9.73334Z" fill="#F8F8F8"/>
</svg>
