<svg id="e8H30iGFs1A1" xmlns="http://www.w3.org/2000/svg" xmlns:xlink="http://www.w3.org/1999/xlink" viewBox="0 0 14 14" shape-rendering="geometricPrecision" text-rendering="geometricPrecision"><path d="M10.7065,13c-.1066.0004-.2118-.0247-.3067-.0733l-3.39996-1.78-3.4,1.78c-.1104.058-.23488.0839-.35928.0748s-.24373-.0531-.34443-.1267-.17873-.174-.22521-.2898-.05956-.2422-.03774-.365l.66666-3.75333L0.553175,5.8c-.085695-.08551-.146486-.19275-.175848-.3102s-.026189-.24068.009181-.35646c.03864-.11849.109718-.22377.205167-.3039s.211449-.1319.334834-.14944L4.72651,4.12667l1.67333-3.42c.05459-.112714.13983-.207772.24594-.274284s.22882-.101789.35406-.101789.24795.035277.35406.101789.19135.16157.24594.274284L9.29317,4.12l3.80003.55334c.1234.01753.2394.06931.3348.14944s.1665.18541.2052.30389c.0353.11578.0385.23901.0092.35646-.0294.11745-.0902.22469-.1759.31021L10.7198,8.46l.6667,3.7533c.0238.125.0113.2542-.0359.3723s-.1273.2203-.2308.2944c-.1207.0846-.266.1268-.4133.12ZM6.99984,9.73334c.10687-.0027.21258.02258.30667.07333L9.81984,11.14l-.48-2.80666c-.01862-.10717-.01074-.21727.02296-.32069s.09219-.19702.17038-.27265L11.5332,5.78667L8.73318,5.37334c-.10268-.02067-.19904-.06525-.28128-.13011s-.14803-.14819-.19206-.24323l-1.26-2.5" fill="#f8f8f8"/></svg>
