<svg id="efvziNyGmdt1" xmlns="http://www.w3.org/2000/svg" xmlns:xlink="http://www.w3.org/1999/xlink" viewBox="0 0 14 14" shape-rendering="geometricPrecision" text-rendering="geometricPrecision"><path d="M10.7065,13.33581c-.1066.0004-.2118-.0247-.3067-.0733l-3.39996-1.78-3.4,1.78c-.1104.058-.23488.0839-.35928.0748s-.24373-.0531-.34443-.1267-.17873-.174-.22521-.2898c-.04649-.1157-.05956-.2422-.03774-.365l.66666-3.75333L0.55318,6.13581c-.08569-.08551-.14649-.19275-.17585-.3102s-.02619-.24068.00918-.35646c.03864-.11849.10972-.22377.20517-.3039s.21145-.1319.33483-.14944l3.8-.55333l1.67333-3.42c.05459-.11271.13983-.20777.24594-.27428s.22882-.10179.35406-.10179.24795.03528.35406.10179.19135.16157.24594.27428L9.29317,4.45581l3.80003.55334c.1234.01753.2394.06931.3348.14944s.1665.18541.2052.30389c.0353.11578.0385.23901.0092.35646-.0294.11745-.0902.22469-.1759.31021L10.7198,8.79581l.6667,3.7533c.0238.125.0113.2542-.0359.3723s-.1273.2203-.2308.2944c-.1207.0846-.266.1268-.4133.12Z" transform="translate(-.009836-.002747)" fill="#161616"/></svg>
