<svg width="38" height="34" viewBox="0 0 38 34" fill="none" xmlns="http://www.w3.org/2000/svg">
<path d="M22.9133 29.5331H25.6466C26.2599 29.5331 26.8599 29.7197 27.3665 30.0531L32.2465 33.3063C32.4864 33.4663 32.8198 33.4797 33.0731 33.3463C33.3398 33.1997 33.4998 32.933 33.4998 32.6397V30.6797C33.4998 30.0397 34.0197 29.5198 34.6597 29.5198C36.1797 29.5198 37.4197 28.2798 37.4197 26.7598V18.9333C37.4197 15.2534 34.4331 12.2668 30.7531 12.2668H25.6866V7.20019C25.6866 3.52027 22.7 0.533661 19.02 0.533661H7.26028C3.58036 0.546994 0.59375 3.5336 0.59375 7.21353V18.96C0.59375 20.4799 1.83373 21.7199 3.35369 21.7199C3.99368 21.7199 4.51367 22.2399 4.51367 22.8799V26.7865C4.51367 27.1065 4.71367 27.3998 5.007 27.5331C5.30032 27.6531 5.66032 27.5865 5.88698 27.3598L10.6069 22.6399C11.1935 22.0532 11.9802 21.7332 12.8068 21.7332H16.2601V22.8932C16.2601 26.5731 19.2467 29.5597 22.9266 29.5597L22.9133 29.5331ZM30.7398 13.8801C33.5398 13.8801 35.8064 16.16 35.8064 18.9466V26.7731C35.8064 27.4131 35.2864 27.9331 34.6464 27.9331C33.3664 27.9331 32.2331 28.8398 31.9531 30.1064L31.7398 31.0664L28.2465 28.7331C27.4732 28.2131 26.5666 27.9464 25.6332 27.9464H22.9C20.1 27.9464 17.8334 25.6665 17.8334 22.8799V18.9733C17.8334 16.1733 20.1134 13.9067 22.9 13.9067H30.7265L30.7398 13.8801ZM12.7935 20.1066C11.5269 20.1066 10.3536 20.5999 9.46024 21.4932L6.10031 24.8532V22.8666C6.10031 21.3466 4.86033 20.1066 3.34036 20.1066C2.70037 20.1066 2.18038 19.5866 2.18038 18.9466V7.21353C2.18038 4.41358 4.46034 2.14696 7.24695 2.14696H19.0067C21.8067 2.14696 24.0733 4.42692 24.0733 7.21353V12.2801H22.9133C19.2334 12.2801 16.2468 15.2667 16.2468 18.9466V20.1066H12.7935Z" fill="white" fill-opacity="0.92"/>
</svg>
