<svg width="34" height="34" viewBox="0 0 34 34" fill="none" xmlns="http://www.w3.org/2000/svg">
<path d="M33.1598 14.8925H33.1465L25.0233 8.46331C24.8899 8.32992 24.7832 8.26323 24.6498 8.22321C24.5298 8.1832 24.4097 8.16986 24.2897 8.1832H23.436V4.12826L23.9162 4.08825C26.077 3.88817 28.2246 3.66141 30.3054 3.3813C30.8256 3.31461 30.9323 2.88777 30.959 2.75439C31.0257 2.40758 30.8656 2.08746 30.5588 1.9274C30.4121 1.8607 30.252 1.82069 30.1053 1.84736C28.0778 2.11414 26.0237 2.35423 24.0096 2.52763L23.436 2.58099V1.55391C23.436 1.3405 23.356 1.15376 23.2092 1.00703C23.0759 0.860307 22.8758 0.766937 22.6757 0.766937C22.4623 0.766937 22.2622 0.846969 22.1288 0.993693C21.9821 1.12708 21.8887 1.32716 21.8887 1.52724V2.66102L21.3952 2.70103C20.9017 2.72771 20.4215 2.76773 19.928 2.80774C18.9809 2.88777 18.0205 2.96781 17.0068 2.96781C15.9931 2.96781 15.0327 2.88777 14.099 2.80774C13.5921 2.76773 13.1119 2.72771 12.6184 2.70103L12.1249 2.66102V1.55391C12.1249 1.3405 12.0448 1.15376 11.8981 1.00703C11.7514 0.860307 11.5647 0.766937 11.3646 0.766937C10.9244 0.780276 10.5643 1.11374 10.5776 1.55391V2.58099L9.9907 2.52763C7.98991 2.35423 5.93576 2.11414 3.9083 1.84736C3.74823 1.83402 3.58817 1.8607 3.45478 1.9274C3.148 2.08746 2.98793 2.40758 3.05463 2.75439C3.05463 2.88777 3.18801 3.31461 3.70822 3.3813C5.7757 3.66141 7.92321 3.88817 10.0841 4.08825L10.5776 4.12826V8.1832H9.77728C9.60388 8.16986 9.47049 8.1832 9.36378 8.22321C9.2304 8.26323 9.12369 8.32992 9.04366 8.42329L0.853759 14.8792C0.520294 15.1459 0.466939 15.6261 0.733711 15.9596L5.09543 21.2017C5.3622 21.5218 5.82905 21.5751 6.16252 21.3217L8.83024 19.2409V32.4594C8.83024 32.8863 9.17704 33.2331 9.60388 33.2331H24.3964C24.8232 33.2331 25.17 32.8863 25.17 32.4594V19.2409L27.8511 21.3217C28.1712 21.5751 28.6514 21.5218 28.9182 21.2017L33.2665 15.9863C33.3999 15.8262 33.4533 15.6261 33.4399 15.4127C33.4399 15.2126 33.3199 15.0259 33.1598 14.8925ZM12.1249 4.20829L12.6851 4.24831C13.192 4.27499 13.6855 4.315 14.1924 4.35502C15.9931 4.50174 18.0072 4.50174 19.8212 4.35502C20.3148 4.315 20.8216 4.27499 21.3285 4.24831L21.8887 4.20829V8.1832H19.9146C19.6612 8.1832 19.4211 8.3566 19.3811 8.61003C19.1943 9.74381 18.1939 10.5975 17.0201 10.5975C15.8463 10.5975 14.8459 9.74381 14.6592 8.61003C14.6192 8.3566 14.3791 8.1832 14.1257 8.1832H12.1515V4.20829H12.1249ZM28.1979 19.6411L24.8766 17.0534C24.7165 16.92 24.5031 16.8666 24.303 16.88C24.1029 16.9066 23.9162 17 23.7828 17.1734C23.6494 17.3335 23.5961 17.5602 23.6227 17.7736V17.947L23.6361 31.6858H10.3775V17.8403C10.4309 17.4402 10.2708 17.1201 9.97736 16.96L9.84397 16.9066C9.55052 16.8133 9.25707 16.8933 9.04366 17.1067L5.80238 19.6411L2.44105 15.5995L9.87065 9.73047H13.3654C13.9789 11.1444 15.3795 12.1314 17.0068 12.1314C18.6341 12.1314 20.0347 11.1444 20.6349 9.73047H24.1296L31.5725 15.5995L28.1979 19.6411Z" fill="white" fill-opacity="0.92"/>
</svg>
