<svg width="30" height="36" viewBox="0 0 30 36" fill="none" xmlns="http://www.w3.org/2000/svg">
<path d="M29.6965 22.3123C29.6965 21.7924 29.3899 21.3258 28.91 21.1126L22.205 18.1533L22.9914 10.8618C23.0448 10.3419 22.7915 9.84867 22.3383 9.58207C21.885 9.3288 21.3252 9.35546 20.8986 9.66205L15.7532 13.4345V9.66205C15.7532 8.6623 16.2331 7.7292 17.1129 7.02271L17.1929 6.95606C18.206 6.10293 18.6458 4.68995 18.3126 3.37028C18.006 2.15724 17.0596 1.21081 15.8465 0.904217C15.5666 0.837567 15.2867 0.797577 15.0201 0.797577C14.8068 0.797577 14.5002 0.824237 14.2203 0.877557C12.6073 1.23747 11.4343 2.67711 11.4343 4.29005C11.4343 4.51666 11.5143 4.72994 11.6742 4.8899C11.8342 5.04986 12.0341 5.14317 12.2608 5.14317C12.714 5.14317 13.1006 4.76993 13.1006 4.33004C13.1006 3.70353 13.3538 3.15699 13.7937 2.81041C14.2336 2.46383 14.8201 2.35719 15.4466 2.51715C16.0198 2.66378 16.5664 3.21031 16.713 3.78351C16.873 4.39669 16.753 4.98321 16.3797 5.43643L16.0865 5.71636C14.8201 6.72945 14.1003 8.16909 14.1003 9.66205V13.3411L9.08821 9.67538C8.67498 9.36879 8.10179 9.34213 7.64856 9.5954C7.19534 9.86201 6.94207 10.3552 6.99539 10.8751L7.78186 18.1533L7.54192 18.2599L1.09018 21.1126C0.610302 21.3258 0.303711 21.7924 0.303711 22.3123C0.303711 22.8321 0.610302 23.2987 1.09018 23.512L7.79519 26.4712L7.00872 33.7628C6.9554 34.2826 7.20867 34.7892 7.66189 35.0425C8.10179 35.2957 8.67498 35.2691 9.10154 34.9625L15.0201 30.6302L20.9386 34.9625C21.3652 35.2691 21.925 35.2957 22.3649 35.0425C22.8181 34.7892 23.0714 34.2826 23.0181 33.7628L22.2316 26.4846L22.4716 26.3779L28.9366 23.5253C29.4165 23.312 29.7231 22.8455 29.7231 22.3256L29.6965 22.3123ZM21.6318 25.2449C21.1119 25.4715 20.792 26.018 20.8586 26.5912L21.6451 33.8294L15.7799 29.5238C15.3267 29.1906 14.6735 29.1906 14.2203 29.5238L8.35506 33.8161L9.14153 26.5912C9.20818 26.018 8.88826 25.4848 8.36839 25.2449L1.7167 22.3123L8.36839 19.3797C8.90159 19.153 9.20818 18.6065 9.14153 18.0333L8.35506 10.7951L14.2203 15.0874C14.6868 15.4206 15.3133 15.4206 15.7799 15.0874L21.6451 10.7951L20.8586 18.02C20.792 18.5932 21.1119 19.1264 21.6318 19.3663L28.2835 22.2989L21.6318 25.2315V25.2449Z" fill="#AD0054"/>
</svg>
