<svg width="28" height="36" viewBox="0 0 28 36" fill="none" xmlns="http://www.w3.org/2000/svg">
<path d="M24.6078 31.4819L24.8211 31.1885C25.6079 30.095 26.0346 28.7482 26.0346 27.4013C26.0346 23.7875 23.1009 20.8537 19.487 20.8537C15.8732 20.8537 12.9395 23.7875 12.9395 27.4013C12.9395 31.0152 15.8732 33.9489 19.487 33.9489C20.8339 33.9489 22.1808 33.5222 23.2742 32.7354L23.5676 32.522L26.4347 35.4024C26.6881 35.6691 27.1148 35.6825 27.4348 35.4291L27.5282 35.3624C27.7549 35.1224 27.7682 34.669 27.5148 34.4023L24.6078 31.4952V31.4819ZM19.5004 32.482C16.7 32.482 14.4197 30.2017 14.4197 27.4013C14.4197 24.6009 16.7 22.3206 19.5004 22.3206C22.3008 22.3206 24.5811 24.6009 24.5811 27.4013C24.5811 30.2017 22.3008 32.482 19.5004 32.482Z" fill="white" fill-opacity="0.92"/>
<path d="M9.71243 28.1214H6.07192V13.8261C6.07192 13.4394 5.76521 13.1327 5.37849 13.1327H2.24472L1.65797 9.05208L3.40488 8.46533C4.79174 7.99859 6.23194 7.7719 7.69882 7.7719H9.55241L9.68576 7.94525C10.8059 9.46547 12.6462 10.0122 14.0064 10.0122C15.3666 10.0122 17.2068 9.46547 18.327 7.94525L18.4603 7.7719H20.3273C21.7808 7.7719 23.221 8.01193 24.6079 8.46533L26.3548 9.05208L25.768 13.1327H22.6209C22.2342 13.1327 21.9275 13.4394 21.9275 13.8261V17.8133C21.9275 18.2 22.2342 18.5067 22.6209 18.5067C23.0076 18.5067 23.3144 18.2 23.3144 17.8133V14.5195H26.3681C26.7148 14.5195 27.0082 14.2661 27.0482 13.9328L27.795 8.69203C27.8483 8.35864 27.6483 8.05194 27.3282 7.94525L25.0346 7.18515C23.501 6.67841 21.9142 6.4117 20.3006 6.4117H18.0736C17.7402 6.4117 17.5402 6.71841 17.4735 6.85177C17.1135 7.51853 16.2867 8.11861 15.2599 8.43866L14.6998 8.61201V6.74508C14.6998 6.07832 15.0198 5.45157 15.6066 4.9715C16.3934 4.34475 16.7401 3.29126 16.4867 2.30446C16.26 1.42434 15.5666 0.730904 14.6865 0.504206C14.4864 0.450865 14.2864 0.424194 14.073 0.424194C13.8864 0.424194 13.673 0.43753 13.4863 0.49087C12.2995 0.757575 11.446 1.81106 11.446 2.98455C11.446 3.17125 11.5127 3.34461 11.646 3.47796C11.7794 3.61131 11.9394 3.67799 12.1261 3.69132C12.4995 3.69132 12.8062 3.38461 12.8195 3.01123C12.8195 2.59783 12.9796 2.25112 13.2596 2.03775C13.553 1.81106 13.9264 1.74438 14.3264 1.85106C14.6998 1.94441 15.0465 2.29112 15.1399 2.66451C15.2732 3.15791 15.1399 3.59797 14.7398 3.91802C13.833 4.65146 13.3129 5.6916 13.3129 6.75842V8.62535L12.7529 8.45199C11.7261 8.13195 10.8993 7.53186 10.5392 6.8651C10.4725 6.73175 10.2725 6.42504 9.93913 6.42504H7.71215C6.09859 6.42504 4.5117 6.67841 2.97815 7.19848L0.684496 7.95859C0.364451 8.06527 0.177758 8.38531 0.217763 8.70536L0.964535 13.9461C1.01788 14.2795 1.31125 14.5328 1.64463 14.5328H4.69839V28.8282C4.69839 29.2149 5.0051 29.5216 5.39183 29.5216H9.71243C10.0992 29.5216 10.4059 29.2149 10.4059 28.8282C10.4059 28.4415 10.0992 28.1348 9.71243 28.1348V28.1214Z" fill="white" fill-opacity="0.92"/>
</svg>
